<?xml version="1.0" encoding="UTF-8"?>
<svg version="1.1" xmlns="http://www.w3.org/2000/svg" width="512" height="512">
<path d="M0 0 C1.04750801 -0.00307895 1.04750801 -0.00307895 2.1161778 -0.0062201 C4.45576816 -0.01187366 6.79529935 -0.01043489 9.13489532 -0.00901413 C10.8295144 -0.01159872 12.52413286 -0.01461214 14.21875048 -0.01801753 C18.87561726 -0.02607995 23.53246861 -0.02787668 28.18934155 -0.028615 C33.21204987 -0.0304669 38.23475021 -0.03801499 43.25745392 -0.04475021 C54.24115832 -0.05832928 65.22485908 -0.06435776 76.20857048 -0.06876087 C83.06890566 -0.07152435 89.92923944 -0.07576193 96.78957367 -0.08026505 C115.78913789 -0.09245779 134.78870099 -0.10275668 153.78826904 -0.10614014 C155.00419228 -0.1063597 156.22011552 -0.10657927 157.47288492 -0.10680549 C158.69169846 -0.10702377 159.910512 -0.10724204 161.16625929 -0.10746694 C163.63598855 -0.1079104 166.10571782 -0.10835696 168.57544708 -0.10880661 C170.41304898 -0.10913875 170.41304898 -0.10913875 172.28777415 -0.10947761 C192.13018799 -0.11342408 211.97256507 -0.1308735 231.81496471 -0.15416613 C252.19386736 -0.17789513 272.57275158 -0.19034271 292.95166826 -0.19150805 C304.39077029 -0.19242401 315.82982445 -0.19815624 327.26891327 -0.21632767 C337.01145197 -0.23174962 346.753928 -0.23683679 356.49647659 -0.22858956 C361.46425359 -0.22469033 366.43190446 -0.22557711 371.39966583 -0.23964691 C375.95474012 -0.25242947 380.50959406 -0.25115025 385.06466824 -0.2390562 C386.70537527 -0.23710671 388.34609815 -0.24014274 389.98678297 -0.24890056 C406.2298281 -0.3300579 420.39894949 1.94784026 434.05396271 11.31892776 C445.91904284 23.1840079 455.02400476 37.10359766 455.14793581 54.29353762 C455.14552072 55.35238145 455.14310564 56.41122529 455.14061737 57.5021553 C455.14585405 58.64094745 455.15109073 59.7797396 455.15648609 60.9530406 C455.17147763 64.76579382 455.17219108 68.57841273 455.17285919 72.39119339 C455.17940254 75.12648023 455.18886053 77.86175551 455.19808197 80.59703445 C455.22089491 88.02714166 455.22884898 95.45722023 455.23390841 102.88735771 C455.23717055 107.53239363 455.24369625 112.1774213 455.25090981 116.82245255 C455.27047297 129.69882057 455.28687815 142.57518095 455.28978634 155.45156479 C455.28997391 156.27497666 455.29016148 157.09838853 455.29035473 157.94675228 C455.29072097 159.61581834 455.29108467 161.2848844 455.29144584 162.95395046 C455.29162865 163.78241055 455.29181147 164.61087064 455.29199982 165.46443558 C455.29227064 166.70865403 455.29227064 166.70865403 455.29254694 167.97800821 C455.29608516 181.40494382 455.32308676 194.83171871 455.36049771 208.25859863 C455.39865412 222.06426274 455.41794436 235.86984727 455.41824585 249.67556524 C455.41882887 257.41864901 455.42721949 265.16154115 455.45624352 272.90457535 C455.48085608 279.50080653 455.4879744 286.09677624 455.47299599 292.69304103 C455.46586612 296.05314766 455.46927744 299.41232253 455.48940659 302.77243805 C455.59302132 321.20012423 455.09909912 336.35341448 442.86646271 351.13142776 C441.86292755 352.41146683 441.86292755 352.41146683 440.83911896 353.71736526 C431.26691844 365.24554889 418.52479518 370.76963092 403.7711513 372.35684359 C398.62794415 372.70634392 393.48529927 372.67012988 388.33301544 372.63936234 C386.62293692 372.64398296 384.91286238 372.6503436 383.20279598 372.65827131 C378.54947343 372.67482841 373.89648286 372.66678095 369.24315977 372.65432644 C364.2069379 372.64522195 359.17077045 372.65927228 354.13455963 372.67024612 C344.28671229 372.68797862 334.43898729 372.68421491 324.59113526 372.67259556 C316.58344413 372.66354071 308.57578714 372.6623461 300.56809235 372.66669083 C299.4258802 372.66730376 298.28366805 372.66791669 297.10684341 372.6685482 C294.78604165 372.66982717 292.46523989 372.67112403 290.14443815 372.67243856 C268.41184221 372.68382893 246.67931391 372.6707549 224.94672906 372.6492371 C206.32260903 372.63136754 187.69858875 372.63447208 169.07447052 372.65291214 C147.41656256 372.67434614 125.75871379 372.68273043 104.1007967 372.67046309 C101.78880883 372.66918897 99.47682095 372.66793148 97.16483307 372.66669083 C96.02746262 372.66607372 94.89009216 372.66545662 93.71825594 372.66482082 C85.72555993 372.66137551 77.73290165 372.66717857 69.74021149 372.67660904 C59.99208654 372.68785854 50.24409033 372.68472708 40.49598002 372.66348606 C35.52786094 372.65301531 30.55995606 372.64878562 25.59183884 372.66208267 C21.03451605 372.67409524 16.47760387 372.66729963 11.92031777 372.64617246 C10.28122614 372.64174365 8.64209905 372.6438877 7.00303066 372.65367562 C-8.39193297 372.73847933 -23.52086722 370.79176901 -36.13353729 361.13142776 C-37.51056298 359.50067462 -38.85026465 357.8369385 -40.13353729 356.13142776 C-40.89666229 355.40955276 -41.65978729 354.68767776 -42.44603729 353.94392776 C-50.89516745 345.10181481 -57.24125056 333.78704534 -57.26775837 321.29989243 C-57.27221621 320.32397786 -57.27667406 319.34806329 -57.28126699 318.34257555 C-57.28108262 317.27294683 -57.28089826 316.20331811 -57.28070831 315.1012764 C-57.284385 313.96293083 -57.28806169 312.82458526 -57.29184979 311.65174437 C-57.30289644 307.82270202 -57.30673217 303.9936868 -57.31053925 300.16463089 C-57.31627115 297.42492312 -57.32343718 294.68521942 -57.33045197 291.94551468 C-57.35020559 283.71272124 -57.36028201 275.47992659 -57.36917976 267.24711537 C-57.37356519 263.36748249 -57.37893141 259.48785096 -57.38416862 255.60821915 C-57.40118118 242.70623178 -57.41567388 229.80424525 -57.42291737 216.90224838 C-57.42482718 213.55481337 -57.42674752 210.20737837 -57.42870331 206.85994339 C-57.42918705 206.02798099 -57.42967079 205.19601858 -57.43016919 204.33884519 C-57.43846398 190.87092254 -57.46379146 177.40308887 -57.49628399 163.93520504 C-57.52939176 150.09914685 -57.54736956 136.26313381 -57.55056161 122.42703581 C-57.55272346 114.66222968 -57.5614242 106.89755324 -57.58702278 99.1327858 C-57.60878081 92.51776403 -57.6167553 85.90290345 -57.607056 79.28784996 C-57.60252563 75.91609125 -57.60652578 72.54493307 -57.62381744 69.17317581 C-57.6415594 65.50765564 -57.63441759 61.84296974 -57.62128448 58.17744827 C-57.63225373 57.12566533 -57.64322298 56.07388238 -57.65452462 54.99022722 C-57.50273402 37.35787555 -48.32090159 23.17332997 -36.13353729 11.13142776 C-26.22785658 3.00330018 -12.56692754 0.01261558 0 0 Z " fill="#D11034" transform="translate(57.13353729248047,69.86857223510742)"/>
<path d="M0 0 C1.04750801 -0.00307895 1.04750801 -0.00307895 2.1161778 -0.0062201 C4.45576816 -0.01187366 6.79529935 -0.01043489 9.13489532 -0.00901413 C10.8295144 -0.01159872 12.52413286 -0.01461214 14.21875048 -0.01801753 C18.87561726 -0.02607995 23.53246861 -0.02787668 28.18934155 -0.028615 C33.21204987 -0.0304669 38.23475021 -0.03801499 43.25745392 -0.04475021 C54.24115832 -0.05832928 65.22485908 -0.06435776 76.20857048 -0.06876087 C83.06890566 -0.07152435 89.92923944 -0.07576193 96.78957367 -0.08026505 C115.78913789 -0.09245779 134.78870099 -0.10275668 153.78826904 -0.10614014 C155.00419228 -0.1063597 156.22011552 -0.10657927 157.47288492 -0.10680549 C158.69169846 -0.10702377 159.910512 -0.10724204 161.16625929 -0.10746694 C163.63598855 -0.1079104 166.10571782 -0.10835696 168.57544708 -0.10880661 C170.41304898 -0.10913875 170.41304898 -0.10913875 172.28777415 -0.10947761 C192.13018799 -0.11342408 211.97256507 -0.1308735 231.81496471 -0.15416613 C252.19386736 -0.17789513 272.57275158 -0.19034271 292.95166826 -0.19150805 C304.39077029 -0.19242401 315.82982445 -0.19815624 327.26891327 -0.21632767 C337.01145197 -0.23174962 346.753928 -0.23683679 356.49647659 -0.22858956 C361.46425359 -0.22469033 366.43190446 -0.22557711 371.39966583 -0.23964691 C375.95474012 -0.25242947 380.50959406 -0.25115025 385.06466824 -0.2390562 C386.70537527 -0.23710671 388.34609815 -0.24014274 389.98678297 -0.24890056 C406.2298281 -0.3300579 420.39894949 1.94784026 434.05396271 11.31892776 C444.76306706 22.02803211 455.04833386 36.01444656 455.11530304 51.82542801 C455.10811249 52.51091721 455.10092194 53.1964064 455.09351349 53.902668 C455.09380554 54.64496155 455.0940976 55.3872551 455.0943985 56.15204239 C455.09301613 58.58149181 455.0775071 61.01062633 455.06177521 63.44002151 C455.05804118 65.13395393 455.05519605 66.82788852 455.05319977 68.52182388 C455.04559399 72.96220831 455.02597199 77.40246016 455.00379181 81.84279251 C454.98326731 86.38104332 454.97418397 90.91931572 454.96411896 95.45759964 C454.94272301 104.34893366 454.90862425 113.24016965 454.86646271 122.13142776 C410.53402426 122.38340059 366.20166185 122.57713279 321.86864805 122.69314639 C316.63053236 122.70690358 311.39241809 122.72114118 306.1543045 122.73567581 C304.59013373 122.74000393 304.59013373 122.74000393 302.99436355 122.74441949 C286.12664328 122.79223786 269.25933689 122.87894221 252.39186185 122.98010852 C235.07437521 123.08310486 217.75710479 123.14410155 200.43932444 123.16640121 C189.75964135 123.18146819 179.08112821 123.22899096 168.40180541 123.3185089 C161.07092682 123.37681543 153.74064987 123.39419314 146.40955644 123.37994292 C142.18421571 123.37292116 137.96091378 123.38340682 133.73593903 123.44268799 C103.45293018 123.84695019 103.45293018 123.84695019 93.90867895 115.30121773 C92.53276745 113.93950033 91.1979126 112.53664943 89.86646271 111.13142776 C88.24197149 109.88130288 86.5962178 108.65723771 84.91333771 107.48689651 C83.48089829 106.43110736 82.04860572 105.37511895 80.61646271 104.31892776 C79.00059963 103.12749122 77.38471352 101.9360859 75.76880646 100.74470901 C74.96040314 100.14867874 74.15199982 99.55264847 73.31909943 98.93855667 C70.87897343 97.1406458 68.43739303 95.34472826 65.99536896 93.54939651 C57.94074716 87.62568305 49.90801144 81.67583501 41.91773224 75.66560745 C36.81751179 71.83380285 31.69110977 68.0385562 26.55396271 64.25642776 C25.75933624 63.67119339 24.96470978 63.08595901 24.14600372 62.48299026 C20.12509538 59.52358875 16.10006255 56.56997463 12.06958771 53.62361526 C4.14150535 47.81866298 -3.71336725 41.94495659 -11.44603729 35.88142776 C-16.87198378 31.62755665 -22.33492543 27.45132877 -27.94603729 23.44392776 C-28.50267059 23.04592972 -29.05930389 22.64793167 -29.63280487 22.23787308 C-32.72118879 20.05604393 -35.86602121 18.03395561 -39.13353729 16.13142776 C-36.85444385 10.32546906 -31.43135277 7.89606448 -26.13353729 5.13142776 C-17.52336717 1.83349563 -9.2237422 0.00925945 0 0 Z " fill="#141414" transform="translate(57.13353729248047,69.86857223510742)"/>
<path d="M0 0 C4.28472154 0.04347939 8.56930741 0.02855039 12.85418773 0.02097726 C20.26443742 0.01575204 27.67380169 0.04693181 35.08382869 0.10335565 C45.79711565 0.18487882 56.50997765 0.21069559 67.22354116 0.22323556 C84.60837636 0.2450826 101.99274042 0.31152447 119.37732005 0.40626168 C136.25750453 0.49815413 153.1375607 0.56888804 170.01794505 0.61133981 C171.58060054 0.61528066 171.58060054 0.61528066 173.17482482 0.61930113 C178.40146007 0.63235219 183.62809623 0.6449891 188.85473299 0.65742016 C232.16515983 0.76096499 275.47507296 0.93698873 318.78503489 1.16065621 C318.90164538 10.81066266 318.99010925 20.46042109 319.04409575 30.11098218 C319.07002603 34.59369772 319.10511469 39.07592605 319.16223216 43.55836129 C319.21715156 47.89617686 319.24657948 52.23352825 319.25942111 56.57166505 C319.26855488 58.21445596 319.28638601 59.85722575 319.31368518 61.49981523 C319.55976965 76.94172463 316.92463031 89.91120559 306.78503489 102.16065621 C306.11601146 103.01401559 305.44698802 103.86737496 304.75769114 104.74659371 C295.18549063 116.27477734 282.44336737 121.79885936 267.68972349 123.38607204 C262.54651634 123.73557237 257.40387146 123.69935833 252.25158763 123.66859078 C250.5415091 123.67321141 248.83143456 123.67957205 247.12136817 123.68749976 C242.46804561 123.70405686 237.81505504 123.6960094 233.16173196 123.68355489 C228.12551009 123.67445039 223.08934264 123.68850073 218.05313182 123.69947457 C208.20528447 123.71720707 198.35755948 123.71344336 188.50970745 123.70182401 C180.50201632 123.69276916 172.49435933 123.69157455 164.48666453 123.69591928 C163.34445239 123.69653221 162.20224024 123.69714514 161.0254156 123.69777665 C158.70461383 123.69905562 156.38381208 123.70035248 154.06301033 123.70166701 C132.3304144 123.71305737 110.59788609 123.69998335 88.86530125 123.67846555 C70.24118122 123.66059599 51.61716094 123.66370053 32.99304271 123.68214059 C11.33513475 123.70357459 -10.32271403 123.71195888 -31.98063111 123.69969153 C-34.29261898 123.69841742 -36.60460686 123.69715993 -38.91659474 123.69591928 C-40.0539652 123.69530217 -41.19133565 123.69468507 -42.36317188 123.69404927 C-50.35586788 123.69060396 -58.34852616 123.69640702 -66.34121633 123.70583749 C-76.08934127 123.71708699 -85.83733748 123.71395553 -95.58544779 123.69271451 C-100.55356687 123.68224376 -105.52147175 123.67801407 -110.48958898 123.69131112 C-115.04691177 123.70332369 -119.60382394 123.69652808 -124.16111004 123.67540091 C-125.80020167 123.6709721 -127.43932877 123.67311615 -129.07839715 123.68290406 C-144.86252023 123.76985147 -159.00422512 121.44017253 -172.21496511 112.16065621 C-172.87496511 111.50065621 -173.53496511 110.84065621 -174.21496511 110.16065621 C-174.21496511 109.17065621 -174.21496511 108.18065621 -174.21496511 107.16065621 C-172.72473073 105.72535348 -172.72473073 105.72535348 -170.62121511 104.22706246 C-169.84648854 103.66696481 -169.07176198 103.10686715 -168.27355886 102.52979684 C-167.42922292 101.93360543 -166.58488698 101.33741403 -165.71496511 100.72315621 C-163.95405774 99.45430568 -162.19364829 98.18476387 -160.43371511 96.91456246 C-159.54941823 96.28050485 -158.66512136 95.64644723 -157.75402761 94.99317575 C-154.2038572 92.43090853 -150.70728637 89.80091908 -147.21496511 87.16065621 C-141.40917445 82.78948697 -135.57021614 78.46531414 -129.71496511 74.16065621 C-123.88392694 69.87256089 -118.06525128 65.56948641 -112.27746511 61.22315621 C-111.31816091 60.50277169 -111.31816091 60.50277169 -110.33947682 59.76783395 C-107.51400363 57.64435688 -104.69007762 55.5188438 -101.86779714 53.39112496 C-92.34239774 46.2107009 -82.78151744 39.09774789 -73.08361745 32.15186715 C-66.28426433 27.25872126 -59.62669176 22.18654757 -52.99645925 17.06715035 C-51.36624749 15.81330354 -49.71796286 14.58259756 -48.05229306 13.37625337 C-45.16796203 11.23870587 -45.16796203 11.23870587 -42.81754804 8.62053514 C-31.04661341 -2.36772443 -15.05869128 -0.19183752 0 0 Z " fill="#007229" transform="translate(193.21496510505676,318.8393437862396)"/>
<path d="M0 0 C114.84 0 229.68 0 348 0 C348 42.24 348 84.48 348 128 C232.83 128 117.66 128 -1 128 C1.67682699 125.32317301 3.89548948 123.21222751 6.87890625 121.0390625 C7.6251123 120.49266113 8.37131836 119.94625977 9.14013672 119.38330078 C9.9395166 118.80306152 10.73889648 118.22282227 11.5625 117.625 C13.28517588 116.36461016 15.00783158 115.10419274 16.73046875 113.84375 C17.60880371 113.20308594 18.48713867 112.56242187 19.39208984 111.90234375 C23.39220295 108.98445559 27.3857424 106.05770927 31.375 103.125 C32.15166016 102.55418701 32.92832031 101.98337402 33.72851562 101.39526367 C40.61414217 96.31774852 47.40791403 91.12361959 54.1965332 85.91748047 C60.80872611 80.86345715 67.51589478 75.9571959 74.31665039 71.15991211 C77.83871095 68.65647664 81.06360439 66.20334067 84 63 C83.47277344 62.7628125 82.94554687 62.525625 82.40234375 62.28125 C79.26835661 60.60979019 76.43636745 58.5747341 73.5625 56.5 C72.94487793 56.05640137 72.32725586 55.61280273 71.69091797 55.15576172 C66.51084172 51.41378778 61.44494841 47.53584709 56.39453125 43.62109375 C47.08780346 36.41526904 37.62432781 29.42510028 28.0625 22.5625 C21.81872721 18.07336656 15.62765645 13.52160444 9.5 8.875 C8.41344116 8.05817749 8.41344116 8.05817749 7.30493164 7.22485352 C6.6371167 6.71494873 5.96930176 6.20504395 5.28125 5.6796875 C4.69408203 5.23351074 4.10691406 4.78733398 3.50195312 4.32763672 C2 3 2 3 0 0 Z " fill="#EDEDED" transform="translate(164,192)"/>
</svg>
